<svg xmlns="http://www.w3.org/2000/svg" version="1.1" xmlns:xlink="http://www.w3.org/1999/xlink" width="20" height="20" x="0" y="0" viewBox="0 0 512 512" style="enable-background: new 0 0 512 512" xml:space="preserve" class="">
    <g>
        <path d="M469.333 347.2c-2.133 0-4.267-1.067-5.333-2.133-3.2-3.2-3.2-8.533 0-11.733 20.267-20.267 32-48 32-76.8s-11.733-56.533-32-76.8c-3.2-3.2-3.2-8.533 0-11.733 3.2-3.2 8.533-3.2 11.733 0C499.2 191.467 512 223.467 512 256.533s-12.8 65.067-36.267 88.533c-2.133 1.067-4.266 2.134-6.4 2.134z" fill="#ff7058" data-original="#ff7058" class=""></path>
        <path d="M438.4 316.267c-2.133 0-4.267-1.067-5.333-2.133-3.2-3.2-3.2-8.533 0-11.733 11.733-11.733 19.2-27.733 19.2-45.867 0-17.067-6.4-33.067-19.2-45.867-3.2-3.2-3.2-8.533 0-11.733 3.2-3.2 8.533-3.2 11.733 0 14.933 14.933 23.467 35.2 23.467 57.6s-8.533 41.6-23.467 57.6c-2.133 1.066-4.267 2.133-6.4 2.133zM42.667 165.867c2.133 0 4.267 1.067 5.333 2.133 3.2 3.2 3.2 8.533 0 11.733-20.267 20.267-32 48-32 76.8s11.733 56.533 32 76.8c3.2 3.2 3.2 8.533 0 11.733-3.2 3.2-8.533 3.2-11.733 0C12.8 321.6 0 289.6 0 256.533S12.8 191.467 36.267 168c2.133-1.067 4.266-2.133 6.4-2.133z" fill="#ff7058" data-original="#ff7058" class=""></path>
        <path d="M73.6 196.8c2.133 0 4.267 1.067 5.333 2.133 3.2 3.2 3.2 8.533 0 11.733-11.733 11.733-19.2 27.733-19.2 45.867s6.4 33.067 19.2 45.867c3.2 3.2 3.2 8.533 0 11.733-3.2 3.2-8.533 3.2-11.733 0-14.933-16-22.4-36.267-22.4-57.6s8.533-41.6 23.467-57.6c1.066-1.066 3.2-2.133 5.333-2.133z" fill="#ff7058" data-original="#ff7058" class=""></path>
        <path d="M256 137.067c-27.733 0-50.133-22.4-50.133-50.133S228.267 36.8 256 36.8s50.133 22.4 50.133 50.133-22.4 50.134-50.133 50.134zm0-68.267c-10.667 0-19.2 8.533-19.2 19.2s8.533 19.2 19.2 19.2 19.2-8.533 19.2-19.2-8.533-19.2-19.2-19.2z" fill="#f8b64c" data-original="#f8b64c"></path>
        <path d="M345.6 414.4c-5.333 12.8-12.8 24.533-22.4 34.133C306.133 465.6 282.667 475.2 256 475.2s-49.067-10.667-67.2-26.667c-9.6-9.6-18.133-21.333-22.4-34.133h179.2z" fill="#ff7058" data-original="#ff7058" class=""></path>
        <path d="M345.6 414.4c-5.333 12.8-12.8 24.533-22.4 34.133H188.8c-9.6-9.6-18.133-21.333-22.4-34.133h179.2z" style="opacity: 0.1; enable-background: new" fill="#231f20" data-original="#231f20"></path>
        <path d="M409.6 384.533H102.4V241.6C102.4 156.267 170.667 88 256 88s153.6 68.267 153.6 153.6v142.933z" fill="#ffd15c" data-original="#ffd15c" class=""></path>
        <path d="M393.6 369.6H118.4c-25.6 0-45.867 20.267-45.867 45.867v9.6a9.56 9.56 0 0 0 9.6 9.6h347.733a9.56 9.56 0 0 0 9.6-9.6v-9.6c.001-24.534-21.333-45.867-45.866-45.867z" fill="#f8b64c" data-original="#f8b64c"></path>
    </g>
</svg>